<?xml version="1.0" encoding="utf-8"?>
<!-- Generator: Adobe Illustrator 19.1.0, SVG Export Plug-In . SVG Version: 6.00 Build 0)  -->
<svg version="1.0" xmlns="http://www.w3.org/2000/svg" xmlns:xlink="http://www.w3.org/1999/xlink" x="0px" y="0px"
	 viewBox="0 0 1920 1066.1" style="enable-background:new 0 0 1920 1066.1;" xml:space="preserve">
<style type="text/css">
	.st0{fill:#CBD9E6;}
	.st1{fill:#FC8E2B;}
	.st2{fill:none;stroke:#FBBA00;stroke-width:3;stroke-linecap:round;stroke-linejoin:round;stroke-miterlimit:10;}
	
		.st3{fill:none;stroke:#B3B3B3;stroke-width:2;stroke-linecap:round;stroke-linejoin:round;stroke-miterlimit:10;stroke-dasharray:5;}
	.st4{fill:#FFFFFF;stroke:#0000FF;stroke-miterlimit:10;}
	.st5{fill:none;stroke:#8ED1EE;stroke-width:28;stroke-linecap:round;stroke-linejoin:round;stroke-miterlimit:10;}
	.st6{fill:none;stroke:#8ED1EE;stroke-width:28;stroke-linejoin:round;stroke-miterlimit:10;}
	.st7{fill:#C4D8A7;}
	.st8{fill:none;stroke:#000000;stroke-width:2;stroke-linecap:round;stroke-linejoin:round;stroke-miterlimit:10;}
	.st9{fill:none;stroke:#008DCF;stroke-width:6;stroke-linecap:round;stroke-linejoin:round;stroke-miterlimit:10;}
	.st10{fill:none;stroke:#FBBA00;stroke-width:3;stroke-linecap:round;stroke-linejoin:round;}
	.st11{fill:none;stroke:#FBBA00;stroke-width:3;stroke-linecap:round;stroke-linejoin:round;stroke-dasharray:4.7504,4.7504;}
	.st12{fill:#FFFFFF;stroke:#008DCF;stroke-miterlimit:10;}
	.st13{fill:#FFFFFF;stroke:#FBBA00;stroke-miterlimit:10;}
	.st14{fill:#29ABE2;}
	.st15{font-family:'MyriadPro-Bold';}
	.st16{font-size:9px;}
	.st17{font-family:'MyriadPro-Regular';}
	.st18{font-size:8px;}
	.st19{fill:#789B2C;}
	.st20{font-family:'MyriadPro-It';}
	.st21{font-size:6px;}
	.st22{fill:#FFFFFF;}
	.st23{fill:#ED5F5F;}
	.st24{fill:#7688A0;}
	.st25{fill:#603813;}
	.st26{fill:#0071BC;}
	.st27{font-size:11px;}
	.st28{fill:#42210B;}
	.st29{fill:none;}
</style>
<g id="Слой_6">
	<g>
		<rect x="0.5" y="1.2" class="st0" width="1919" height="1064.4"/>
		<path class="st1" d="M1919,1.7v1063.4H1V1.7H1919 M1920,0.7H0v1065.4h1920V0.7L1920,0.7z"/>
	</g>
</g>
<g id="Layer_3">
	<line class="st2" x1="1075" y1="948.5" x2="1186" y2="948.5"/>
	<line class="st2" x1="875" y1="804.5" x2="1150" y2="804.5"/>
	<line class="st2" x1="1301" y1="351.5" x2="999" y2="351.5"/>
	<path class="st3" d="M1328.9,547.8c0,12.5,10.1,22.6,22.6,22.6H1920"/>
	<path class="st4" d="M1308.7,533.4h-27.2c-2,0-3.6-1.6-3.6-3.6v-37.9c0-2,1.6-3.6,3.6-3.6h27.2c2,0,3.6,1.6,3.6,3.6v37.9
		C1312.3,531.7,1310.7,533.4,1308.7,533.4z"/>
	<path class="st2" d="M1302.6,97.6v187.6l-1.9,343.5V836c0,15.5,6.2,30.4,17.2,41.5l151,151.7"/>
	<line class="st5" x1="200" y1="912" x2="425" y2="912"/>
	<path class="st4" d="M798.1,533.4h-27.2c-2,0-3.6-1.6-3.6-3.6v-37.9c0-2,1.6-3.6,3.6-3.6h27.2c2,0,3.6,1.6,3.6,3.6v37.9
		C801.8,531.7,800.1,533.4,798.1,533.4z"/>
	<path class="st4" d="M603.2,735.1l-22.8-14.8c-1.7-1.1-2.2-3.4-1.1-5l20.6-31.8c1.1-1.7,3.4-2.2,5-1.1l22.8,14.8
		c1.7,1.1,2.2,3.4,1.1,5L608.3,734C607.2,735.7,604.9,736.2,603.2,735.1z"/>
	<path class="st4" d="M1167,533.4h-27.2c-2,0-3.6-1.6-3.6-3.6v-37.9c0-2,1.6-3.6,3.6-3.6h27.2c2,0,3.6,1.6,3.6,3.6v37.9
		C1170.7,531.7,1169,533.4,1167,533.4z"/>
	<line class="st2" x1="235" y1="517.5" x2="78" y2="517.5"/>
	<path class="st6" d="M912.9,0.7v356.2c0,8.4,2.2,16.6,6.5,23.8l41.7,71.1c4.2,7.2,6.5,15.4,6.5,23.8V520c0,8.7-2.4,17.3-7,24.7
		L778.8,839.2c-4.6,7.4-7,16-7,24.7v50.8c0,9.1-2.7,18.1-7.6,25.7l-41.2,63.2c-5,7.6-7.6,16.6-7.6,25.7v36.8"/>
	<line class="st2" x1="998.5" y1="101" x2="998.5" y2="44"/>
	<path class="st7" d="M421,894.8h-96v-37.9h133.2v0.8C458.2,878.2,441.5,894.8,421,894.8z"/>
	<path class="st2" d="M1641.4,168.2h86.6v189.4c0,7.2-4.5,13.7-11.3,16.2L1507.8,451c-10.2,3.7-17,13.4-17,24.2v140.1"/>
	<path class="st2" d="M1641.4,168.2h86.6v189.4c0,7.2-4.5,13.7-11.3,16.2l-40.4,14.9c-6.6,2.4-10.9,8.7-10.9,15.7v422.5
		c0,26.3-16.7,49.6-41.6,58.1l-223,75.7"/>
	<line class="st2" x1="604.1" y1="710.2" x2="736.8" y2="798"/>
	<line class="st2" x1="133" y1="613.5" x2="439" y2="613.5"/>
	<path class="st2" d="M257.5,982.8l58-44.7V503.5h-106c-12.8,0-24.6,5.8-31.6,16.6L99,642.9"/>
	<polyline class="st2" points="257,853.5 510.9,853.5 604.7,898.1 681.4,776.7 730.4,808.3 	"/>
	<path class="st2" d="M628.7,516.4v-11.5c0-38.3,31.1-69.4,69.4-69.4h84.9"/>
	<line class="st2" x1="1000" y1="246.5" x2="1134" y2="246.5"/>
	<line class="st2" x1="695.6" y1="865.3" x2="874.7" y2="579.1"/>
	<path class="st3" d="M1526.6,1.6v95.7c0,10.1-2.8,19.9-8,28.5L1337,422.4c-5.3,8.6-8,18.4-8,28.5v634"/>
	<line class="st2" x1="400" y1="1036.2" x2="451.6" y2="955.1"/>
	<polyline class="st2" points="784.5,516 784.5,396 998.1,322 	"/>
	<path class="st2" d="M540.2,516.4v-67.1c0-28.5,23.1-51.5,51.5-51.5h42.6"/>
	<path class="st7" d="M744.2,448.7h-52.3c-30.8,0-55.7,23.5-55.7,52.4v0h108V448.7z"/>
	<polyline class="st2" points="635.5,182 635.5,397.9 664.4,443 	"/>
	<line class="st9" x1="1070" y1="517" x2="1070" y2="615"/>
	<polyline class="st2" points="776.5,121 776.5,392.2 782.9,397.3 	"/>
	<polyline class="st9" points="1150,948 1150,290 1303,290 1303,352 1150,351.5 	"/>
	<line class="st2" x1="315" y1="939.5" x2="654" y2="939.5"/>
	<line class="st2" x1="874" y1="892.5" x2="842" y2="892.5"/>
	<line class="st2" x1="876.8" y1="716.9" x2="1148.8" y2="625.1"/>
	<line class="st2" x1="438.5" y1="517" x2="438.5" y2="853"/>
	<g>
		<g>
			<path class="st10" d="M1479.9,1040.1c0.6,0.6,1.2,1.2,1.8,1.7"/>
			<path class="st11" d="M1485.7,1044.5c3.9,2.2,8.4,3.4,13,3.4h60.1"/>
			<line class="st10" x1="1561.1" y1="1047.9" x2="1563.6" y2="1047.9"/>
		</g>
	</g>
	<line class="st2" x1="1304" y1="204.5" x2="1412" y2="204.5"/>
	<rect x="640.6" y="247.9" class="st7" width="81.9" height="55.8"/>
	<line class="st2" x1="1491" y1="509.5" x2="1664" y2="509.5"/>
	<line class="st2" x1="1540.5" y1="740" x2="1540.5" y2="616"/>
	<rect x="343.1" y="451.7" class="st7" width="95.5" height="47.4"/>
	<path class="st7" d="M674.1,884.6l-12.9,20c-1.8,2.8-5.6,3.6-8.4,1.8l-35.7-23.1l19.5-30.2l35.7,23.1
		C675.1,878,675.9,881.8,674.1,884.6z"/>
	<path class="st9" d="M1438.6,97.6h-436.7c-1.8,0-3.3,1.5-3.3,3.3v430.8c0,45.1,36.6,83.5,81.6,83.5h723.6
		c28.1,0,50.9-22.8,50.9-50.9v-19.6"/>
	<polyline class="st2" points="929,974.5 874.5,974.5 874.5,518 	"/>
	<path class="st9" d="M707.8,516.4v31.7L465.6,924.2L451.7,944c-2.3,3.2-2.3,7.5-0.1,10.8l53.8,81.4"/>
	<path class="st9" d="M1299,516.4H220.2c-12.6,0-24.3,6.1-31.1,16.2l-74.9,110.9c-20.9,29.4-0.2,65.5,36.2,63.1h453.7"/>
</g>
<g id="Слой_7">
	<path class="st12" d="M1348,618.8l-2.5-2.5c-0.5-0.5-0.5-1.4,0-2l2.5-2.5c0.5-0.5,1.4-0.5,2,0l2.5,2.5c0.5,0.5,0.5,1.4,0,2
		l-2.5,2.5C1349.5,619.3,1348.6,619.3,1348,618.8z"/>
	<path class="st12" d="M1501.1,618.8l-2.5-2.5c-0.5-0.5-0.5-1.4,0-2l2.5-2.5c0.5-0.5,1.4-0.5,2,0l2.5,2.5c0.5,0.5,0.5,1.4,0,2
		l-2.5,2.5C1502.6,619.3,1501.7,619.3,1501.1,618.8z"/>
	<path class="st12" d="M1549.1,618.8l-2.5-2.5c-0.5-0.5-0.5-1.4,0-2l2.5-2.5c0.5-0.5,1.4-0.5,2,0l2.5,2.5c0.5,0.5,0.5,1.4,0,2
		l-2.5,2.5C1550.6,619.3,1549.7,619.3,1549.1,618.8z"/>
	<path class="st12" d="M1648.5,618.8l-2.5-2.5c-0.5-0.5-0.5-1.4,0-2l2.5-2.5c0.5-0.5,1.4-0.5,2,0l2.5,2.5c0.5,0.5,0.5,1.4,0,2
		l-2.5,2.5C1650,619.3,1649.1,619.3,1648.5,618.8z"/>
	<path class="st12" d="M1775.6,618.8l-2.5-2.5c-0.5-0.5-0.5-1.4,0-2l2.5-2.5c0.5-0.5,1.4-0.5,2,0l2.5,2.5c0.5,0.5,0.5,1.4,0,2
		l-2.5,2.5C1777.1,619.3,1776.2,619.3,1775.6,618.8z"/>
	<path class="st13" d="M1664.5,528.9l-2.5-2.5c-0.5-0.5-0.5-1.4,0-2l2.5-2.5c0.5-0.5,1.4-0.5,2,0l2.5,2.5c0.5,0.5,0.5,1.4,0,2
		l-2.5,2.5C1665.9,529.4,1665.1,529.4,1664.5,528.9z"/>
	<path class="st13" d="M1664.5,469.8l-2.5-2.5c-0.5-0.5-0.5-1.4,0-2l2.5-2.5c0.5-0.5,1.4-0.5,2,0l2.5,2.5c0.5,0.5,0.5,1.4,0,2
		l-2.5,2.5C1665.9,470.3,1665.1,470.3,1664.5,469.8z"/>
	<path class="st13" d="M1664.5,421l-2.5-2.5c-0.5-0.5-0.5-1.4,0-2l2.5-2.5c0.5-0.5,1.4-0.5,2,0l2.5,2.5c0.5,0.5,0.5,1.4,0,2
		l-2.5,2.5C1665.9,421.5,1665.1,421.5,1664.5,421z"/>
	<path class="st13" d="M1558,435.7l-2.5-2.5c-0.5-0.5-0.5-1.4,0-2l2.5-2.5c0.5-0.5,1.4-0.5,2,0l2.5,2.5c0.5,0.5,0.5,1.4,0,2
		l-2.5,2.5C1559.4,436.2,1558.6,436.2,1558,435.7z"/>
	<path class="st13" d="M1490,489.3l-2.5-2.5c-0.5-0.5-0.5-1.4,0-2l2.5-2.5c0.5-0.5,1.4-0.5,2,0l2.5,2.5c0.5,0.5,0.5,1.4,0,2
		l-2.5,2.5C1491.4,489.9,1490.6,489.9,1490,489.3z"/>
	<path class="st13" d="M1490,521.2l-2.5-2.5c-0.5-0.5-0.5-1.4,0-2l2.5-2.5c0.5-0.5,1.4-0.5,2,0l2.5,2.5c0.5,0.5,0.5,1.4,0,2
		l-2.5,2.5C1491.4,521.7,1490.6,521.7,1490,521.2z"/>
	<path class="st13" d="M1490,559.6l-2.5-2.5c-0.5-0.5-0.5-1.4,0-2l2.5-2.5c0.5-0.5,1.4-0.5,2,0l2.5,2.5c0.5,0.5,0.5,1.4,0,2
		l-2.5,2.5C1491.4,560.1,1490.6,560.1,1490,559.6z"/>
	<path class="st12" d="M1265.8,520l-2.5-2.5c-0.5-0.5-0.5-1.4,0-2l2.5-2.5c0.5-0.5,1.4-0.5,2,0l2.5,2.5c0.5,0.5,0.5,1.4,0,2
		l-2.5,2.5C1267.2,520.6,1266.3,520.6,1265.8,520z"/>
	<path class="st12" d="M1233.3,520l-2.5-2.5c-0.5-0.5-0.5-1.4,0-2l2.5-2.5c0.5-0.5,1.4-0.5,2,0l2.5,2.5c0.5,0.5,0.5,1.4,0,2
		l-2.5,2.5C1234.7,520.6,1233.8,520.6,1233.3,520z"/>
	<path class="st12" d="M1069,520l-2.5-2.5c-0.5-0.5-0.5-1.4,0-2l2.5-2.5c0.5-0.5,1.4-0.5,2,0l2.5,2.5c0.5,0.5,0.5,1.4,0,2l-2.5,2.5
		C1070.4,520.6,1069.6,520.6,1069,520z"/>
	<path class="st12" d="M997.6,536.5l-2.5-2.5c-0.5-0.5-0.5-1.4,0-2l2.5-2.5c0.5-0.5,1.4-0.5,2,0l2.5,2.5c0.5,0.5,0.5,1.4,0,2
		l-2.5,2.5C999,537.1,998.1,537.1,997.6,536.5z"/>
	<path class="st12" d="M997.6,478.2l-2.5-2.5c-0.5-0.5-0.5-1.4,0-2l2.5-2.5c0.5-0.5,1.4-0.5,2,0l2.5,2.5c0.5,0.5,0.5,1.4,0,2
		l-2.5,2.5C999,478.7,998.1,478.7,997.6,478.2z"/>
	<path class="st12" d="M997.6,402.3l-2.5-2.5c-0.5-0.5-0.5-1.4,0-2l2.5-2.5c0.5-0.5,1.4-0.5,2,0l2.5,2.5c0.5,0.5,0.5,1.4,0,2
		l-2.5,2.5C999,402.9,998.1,402.9,997.6,402.3z"/>
	<path class="st12" d="M997.6,364.6l-2.5-2.5c-0.5-0.5-0.5-1.4,0-2l2.5-2.5c0.5-0.5,1.4-0.5,2,0l2.5,2.5c0.5,0.5,0.5,1.4,0,2
		l-2.5,2.5C999,365.1,998.1,365.1,997.6,364.6z"/>
	<path class="st12" d="M1046.8,354.5l-2.5-2.5c-0.5-0.5-0.5-1.4,0-2l2.5-2.5c0.5-0.5,1.4-0.5,2,0l2.5,2.5c0.5,0.5,0.5,1.4,0,2
		l-2.5,2.5C1048.3,355.1,1047.4,355.1,1046.8,354.5z"/>
	<path class="st12" d="M1120.8,354.5l-2.5-2.5c-0.5-0.5-0.5-1.4,0-2l2.5-2.5c0.5-0.5,1.4-0.5,2,0l2.5,2.5c0.5,0.5,0.5,1.4,0,2
		l-2.5,2.5C1122.2,355.1,1121.3,355.1,1120.8,354.5z"/>
	<path class="st12" d="M1069,618.5l-2.5-2.5c-0.5-0.5-0.5-1.4,0-2l2.5-2.5c0.5-0.5,1.4-0.5,2,0l2.5,2.5c0.5,0.5,0.5,1.4,0,2
		l-2.5,2.5C1070.4,619,1069.6,619,1069,618.5z"/>
	<path class="st13" d="M1069,654.9l-2.5-2.5c-0.5-0.5-0.5-1.4,0-2l2.5-2.5c0.5-0.5,1.4-0.5,2,0l2.5,2.5c0.5,0.5,0.5,1.4,0,2
		l-2.5,2.5C1070.4,655.4,1069.6,655.4,1069,654.9z"/>
	<path class="st12" d="M1162.9,618.5l-2.5-2.5c-0.5-0.5-0.5-1.4,0-2l2.5-2.5c0.5-0.5,1.4-0.5,2,0l2.5,2.5c0.5,0.5,0.5,1.4,0,2
		l-2.5,2.5C1164.4,619,1163.5,619,1162.9,618.5z"/>
	<path class="st12" d="M1149.5,628.6l-2.5-2.5c-0.5-0.5-0.5-1.4,0-2l2.5-2.5c0.5-0.5,1.4-0.5,2,0l2.5,2.5c0.5,0.5,0.5,1.4,0,2
		l-2.5,2.5C1150.9,629.2,1150.1,629.2,1149.5,628.6z"/>
	<path class="st12" d="M1149.5,654.9l-2.5-2.5c-0.5-0.5-0.5-1.4,0-2l2.5-2.5c0.5-0.5,1.4-0.5,2,0l2.5,2.5c0.5,0.5,0.5,1.4,0,2
		l-2.5,2.5C1150.9,655.4,1150.1,655.4,1149.5,654.9z"/>
	<path class="st12" d="M1149.5,668.8l-2.5-2.5c-0.5-0.5-0.5-1.4,0-2l2.5-2.5c0.5-0.5,1.4-0.5,2,0l2.5,2.5c0.5,0.5,0.5,1.4,0,2
		l-2.5,2.5C1150.9,669.4,1150.1,669.4,1149.5,668.8z"/>
	<path class="st12" d="M1149.5,682.8l-2.5-2.5c-0.5-0.5-0.5-1.4,0-2l2.5-2.5c0.5-0.5,1.4-0.5,2,0l2.5,2.5c0.5,0.5,0.5,1.4,0,2
		l-2.5,2.5C1150.9,683.3,1150.1,683.3,1149.5,682.8z"/>
	<path class="st12" d="M1149.5,699.4l-2.5-2.5c-0.5-0.5-0.5-1.4,0-2l2.5-2.5c0.5-0.5,1.4-0.5,2,0l2.5,2.5c0.5,0.5,0.5,1.4,0,2
		l-2.5,2.5C1150.9,700,1150.1,700,1149.5,699.4z"/>
	<path class="st12" d="M1149.5,764.7l-2.5-2.5c-0.5-0.5-0.5-1.4,0-2l2.5-2.5c0.5-0.5,1.4-0.5,2,0l2.5,2.5c0.5,0.5,0.5,1.4,0,2
		l-2.5,2.5C1150.9,765.2,1150.1,765.2,1149.5,764.7z"/>
	<path class="st12" d="M1149.5,785.3l-2.5-2.5c-0.5-0.5-0.5-1.4,0-2l2.5-2.5c0.5-0.5,1.4-0.5,2,0l2.5,2.5c0.5,0.5,0.5,1.4,0,2
		l-2.5,2.5C1150.9,785.9,1150.1,785.9,1149.5,785.3z"/>
	<path class="st12" d="M1149.5,799.2l-2.5-2.5c-0.5-0.5-0.5-1.4,0-2l2.5-2.5c0.5-0.5,1.4-0.5,2,0l2.5,2.5c0.5,0.5,0.5,1.4,0,2
		l-2.5,2.5C1150.9,799.7,1150.1,799.7,1149.5,799.2z"/>
	<path class="st13" d="M1041.9,808.1l-2.5-2.5c-0.5-0.5-0.5-1.4,0-2l2.5-2.5c0.5-0.5,1.4-0.5,2,0l2.5,2.5c0.5,0.5,0.5,1.4,0,2
		l-2.5,2.5C1043.3,808.7,1042.4,808.7,1041.9,808.1z"/>
	<path class="st13" d="M873.7,826.8l-2.5-2.5c-0.5-0.5-0.5-1.4,0-2l2.5-2.5c0.5-0.5,1.4-0.5,2,0l2.5,2.5c0.5,0.5,0.5,1.4,0,2
		l-2.5,2.5C875.1,827.4,874.2,827.4,873.7,826.8z"/>
	<path class="st13" d="M873.7,776.2l-2.5-2.5c-0.5-0.5-0.5-1.4,0-2l2.5-2.5c0.5-0.5,1.4-0.5,2,0l2.5,2.5c0.5,0.5,0.5,1.4,0,2
		l-2.5,2.5C875.1,776.7,874.2,776.7,873.7,776.2z"/>
	<path class="st13" d="M893.3,714.1l-2.5-2.5c-0.5-0.5-0.5-1.4,0-2l2.5-2.5c0.5-0.5,1.4-0.5,2,0l2.5,2.5c0.5,0.5,0.5,1.4,0,2
		l-2.5,2.5C894.8,714.6,893.9,714.6,893.3,714.1z"/>
	<path class="st13" d="M932.3,701.4l-2.5-2.5c-0.5-0.5-0.5-1.4,0-2l2.5-2.5c0.5-0.5,1.4-0.5,2,0l2.5,2.5c0.5,0.5,0.5,1.4,0,2
		l-2.5,2.5C933.8,702,932.9,702,932.3,701.4z"/>
	<path class="st13" d="M995.7,680.1l-2.5-2.5c-0.5-0.5-0.5-1.4,0-2l2.5-2.5c0.5-0.5,1.4-0.5,2,0l2.5,2.5c0.5,0.5,0.5,1.4,0,2
		l-2.5,2.5C997.1,680.6,996.2,680.6,995.7,680.1z"/>
	<path class="st13" d="M873.7,856.5l-2.5-2.5c-0.5-0.5-0.5-1.4,0-2l2.5-2.5c0.5-0.5,1.4-0.5,2,0l2.5,2.5c0.5,0.5,0.5,1.4,0,2
		l-2.5,2.5C875.1,857,874.2,857,873.7,856.5z"/>
	<path class="st13" d="M873.7,886.3l-2.5-2.5c-0.5-0.5-0.5-1.4,0-2l2.5-2.5c0.5-0.5,1.4-0.5,2,0l2.5,2.5c0.5,0.5,0.5,1.4,0,2
		l-2.5,2.5C875.1,886.8,874.2,886.8,873.7,886.3z"/>
	<path class="st13" d="M873.7,914.2l-2.5-2.5c-0.5-0.5-0.5-1.4,0-2l2.5-2.5c0.5-0.5,1.4-0.5,2,0l2.5,2.5c0.5,0.5,0.5,1.4,0,2
		l-2.5,2.5C875.1,914.8,874.2,914.8,873.7,914.2z"/>
	<path class="st13" d="M852.2,896l-2.5-2.5c-0.5-0.5-0.5-1.4,0-2l2.5-2.5c0.5-0.5,1.4-0.5,2,0l2.5,2.5c0.5,0.5,0.5,1.4,0,2l-2.5,2.5
		C853.6,896.5,852.7,896.5,852.2,896z"/>
	<path class="st13" d="M873.7,944.9l-2.5-2.5c-0.5-0.5-0.5-1.4,0-2l2.5-2.5c0.5-0.5,1.4-0.5,2,0l2.5,2.5c0.5,0.5,0.5,1.4,0,2
		l-2.5,2.5C875.1,945.5,874.2,945.5,873.7,944.9z"/>
	<path class="st12" d="M1149.5,813.4l-2.5-2.5c-0.5-0.5-0.5-1.4,0-2l2.5-2.5c0.5-0.5,1.4-0.5,2,0l2.5,2.5c0.5,0.5,0.5,1.4,0,2
		l-2.5,2.5C1150.9,814,1150.1,814,1149.5,813.4z"/>
	<path class="st12" d="M1149.5,878.5l-2.5-2.5c-0.5-0.5-0.5-1.4,0-2l2.5-2.5c0.5-0.5,1.4-0.5,2,0l2.5,2.5c0.5,0.5,0.5,1.4,0,2
		l-2.5,2.5C1150.9,879,1150.1,879,1149.5,878.5z"/>
	<path class="st12" d="M1149.5,899.2l-2.5-2.5c-0.5-0.5-0.5-1.4,0-2l2.5-2.5c0.5-0.5,1.4-0.5,2,0l2.5,2.5c0.5,0.5,0.5,1.4,0,2
		l-2.5,2.5C1150.9,899.7,1150.1,899.7,1149.5,899.2z"/>
	<path class="st12" d="M1149.5,921.8l-2.5-2.5c-0.5-0.5-0.5-1.4,0-2l2.5-2.5c0.5-0.5,1.4-0.5,2,0l2.5,2.5c0.5,0.5,0.5,1.4,0,2
		l-2.5,2.5C1150.9,922.3,1150.1,922.3,1149.5,921.8z"/>
	<path class="st13" d="M1133.4,952l-2.5-2.5c-0.5-0.5-0.5-1.4,0-2l2.5-2.5c0.5-0.5,1.4-0.5,2,0l2.5,2.5c0.5,0.5,0.5,1.4,0,2
		l-2.5,2.5C1134.8,952.5,1134,952.5,1133.4,952z"/>
	<path class="st13" d="M1112.4,952l-2.5-2.5c-0.5-0.5-0.5-1.4,0-2l2.5-2.5c0.5-0.5,1.4-0.5,2,0l2.5,2.5c0.5,0.5,0.5,1.4,0,2
		l-2.5,2.5C1113.8,952.5,1112.9,952.5,1112.4,952z"/>
	<path class="st12" d="M1080,520l-2.5-2.5c-0.5-0.5-0.5-1.4,0-2l2.5-2.5c0.5-0.5,1.4-0.5,2,0l2.5,2.5c0.5,0.5,0.5,1.4,0,2l-2.5,2.5
		C1081.4,520.6,1080.6,520.6,1080,520z"/>
	<path class="st12" d="M905.8,520l-2.5-2.5c-0.5-0.5-0.5-1.4,0-2l2.5-2.5c0.5-0.5,1.4-0.5,2,0l2.5,2.5c0.5,0.5,0.5,1.4,0,2l-2.5,2.5
		C907.3,520.6,906.4,520.6,905.8,520z"/>
	<path class="st12" d="M891.3,520l-2.5-2.5c-0.5-0.5-0.5-1.4,0-2l2.5-2.5c0.5-0.5,1.4-0.5,2,0l2.5,2.5c0.5,0.5,0.5,1.4,0,2l-2.5,2.5
		C892.8,520.6,891.9,520.6,891.3,520z"/>
	<path class="st12" d="M875.8,520l-2.5-2.5c-0.5-0.5-0.5-1.4,0-2l2.5-2.5c0.5-0.5,1.4-0.5,2,0l2.5,2.5c0.5,0.5,0.5,1.4,0,2l-2.5,2.5
		C877.3,520.6,876.4,520.6,875.8,520z"/>
	<path class="st12" d="M1149.5,472.5l-2.5-2.5c-0.5-0.5-0.5-1.4,0-2l2.5-2.5c0.5-0.5,1.4-0.5,2,0l2.5,2.5c0.5,0.5,0.5,1.4,0,2
		l-2.5,2.5C1150.9,473.1,1150.1,473.1,1149.5,472.5z"/>
	<path class="st12" d="M1175.3,354.5l-2.5-2.5c-0.5-0.5-0.5-1.4,0-2l2.5-2.5c0.5-0.5,1.4-0.5,2,0l2.5,2.5c0.5,0.5,0.5,1.4,0,2
		l-2.5,2.5C1176.8,355.1,1175.9,355.1,1175.3,354.5z"/>
	<path class="st12" d="M1149.5,317l-2.5-2.5c-0.5-0.5-0.5-1.4,0-2l2.5-2.5c0.5-0.5,1.4-0.5,2,0l2.5,2.5c0.5,0.5,0.5,1.4,0,2
		l-2.5,2.5C1150.9,317.5,1150.1,317.5,1149.5,317z"/>
	<path class="st12" d="M1222.4,354.5l-2.5-2.5c-0.5-0.5-0.5-1.4,0-2l2.5-2.5c0.5-0.5,1.4-0.5,2,0l2.5,2.5c0.5,0.5,0.5,1.4,0,2
		l-2.5,2.5C1223.9,355.1,1223,355.1,1222.4,354.5z"/>
	<path class="st12" d="M1262.3,354.5l-2.5-2.5c-0.5-0.5-0.5-1.4,0-2l2.5-2.5c0.5-0.5,1.4-0.5,2,0l2.5,2.5c0.5,0.5,0.5,1.4,0,2
		l-2.5,2.5C1263.8,355.1,1262.9,355.1,1262.3,354.5z"/>
	<path class="st12" d="M1222.4,294.5l-2.5-2.5c-0.5-0.5-0.5-1.4,0-2l2.5-2.5c0.5-0.5,1.4-0.5,2,0l2.5,2.5c0.5,0.5,0.5,1.4,0,2
		l-2.5,2.5C1223.9,295,1223,295,1222.4,294.5z"/>
	<path class="st12" d="M1300,308.3l-2.5-2.5c-0.5-0.5-0.5-1.4,0-2l2.5-2.5c0.5-0.5,1.4-0.5,2,0l2.5,2.5c0.5,0.5,0.5,1.4,0,2
		l-2.5,2.5C1301.4,308.9,1300.6,308.9,1300,308.3z"/>
	<path class="st13" d="M1301.9,273l-2.5-2.5c-0.5-0.5-0.5-1.4,0-2l2.5-2.5c0.5-0.5,1.4-0.5,2,0l2.5,2.5c0.5,0.5,0.5,1.4,0,2
		l-2.5,2.5C1303.3,273.5,1302.4,273.5,1301.9,273z"/>
	<path class="st13" d="M1301.9,185.1l-2.5-2.5c-0.5-0.5-0.5-1.4,0-2l2.5-2.5c0.5-0.5,1.4-0.5,2,0l2.5,2.5c0.5,0.5,0.5,1.4,0,2
		l-2.5,2.5C1303.3,185.6,1302.4,185.6,1301.9,185.1z"/>
	<path class="st13" d="M1301.9,133.7l-2.5-2.5c-0.5-0.5-0.5-1.4,0-2l2.5-2.5c0.5-0.5,1.4-0.5,2,0l2.5,2.5c0.5,0.5,0.5,1.4,0,2
		l-2.5,2.5C1303.3,134.2,1302.4,134.2,1301.9,133.7z"/>
	<path class="st12" d="M1301.9,101.1l-2.5-2.5c-0.5-0.5-0.5-1.4,0-2l2.5-2.5c0.5-0.5,1.4-0.5,2,0l2.5,2.5c0.5,0.5,0.5,1.4,0,2
		l-2.5,2.5C1303.3,101.7,1302.4,101.7,1301.9,101.1z"/>
	<path class="st12" d="M1356.9,101.1l-2.5-2.5c-0.5-0.5-0.5-1.4,0-2l2.5-2.5c0.5-0.5,1.4-0.5,2,0l2.5,2.5c0.5,0.5,0.5,1.4,0,2
		l-2.5,2.5C1358.3,101.7,1357.5,101.7,1356.9,101.1z"/>
	<path class="st12" d="M1236.7,101.1l-2.5-2.5c-0.5-0.5-0.5-1.4,0-2l2.5-2.5c0.5-0.5,1.4-0.5,2,0l2.5,2.5c0.5,0.5,0.5,1.4,0,2
		l-2.5,2.5C1238.1,101.7,1237.2,101.7,1236.7,101.1z"/>
	<path class="st12" d="M1178,101.1l-2.5-2.5c-0.5-0.5-0.5-1.4,0-2l2.5-2.5c0.5-0.5,1.4-0.5,2,0l2.5,2.5c0.5,0.5,0.5,1.4,0,2
		l-2.5,2.5C1179.4,101.7,1178.6,101.7,1178,101.1z"/>
	<path class="st12" d="M1117.8,101.1l-2.5-2.5c-0.5-0.5-0.5-1.4,0-2l2.5-2.5c0.5-0.5,1.4-0.5,2,0l2.5,2.5c0.5,0.5,0.5,1.4,0,2
		l-2.5,2.5C1119.3,101.7,1118.4,101.7,1117.8,101.1z"/>
	<path class="st12" d="M1024.2,101.1l-2.5-2.5c-0.5-0.5-0.5-1.4,0-2l2.5-2.5c0.5-0.5,1.4-0.5,2,0l2.5,2.5c0.5,0.5,0.5,1.4,0,2
		l-2.5,2.5C1025.6,101.7,1024.7,101.7,1024.2,101.1z"/>
	<path class="st12" d="M997.5,158.5L995,156c-0.5-0.5-0.5-1.4,0-2l2.5-2.5c0.5-0.5,1.4-0.5,2,0l2.5,2.5c0.5,0.5,0.5,1.4,0,2
		l-2.5,2.5C998.9,159.1,998.1,159.1,997.5,158.5z"/>
	<path class="st12" d="M997.5,177l-2.5-2.5c-0.5-0.5-0.5-1.4,0-2l2.5-2.5c0.5-0.5,1.4-0.5,2,0l2.5,2.5c0.5,0.5,0.5,1.4,0,2l-2.5,2.5
		C998.9,177.6,998.1,177.6,997.5,177z"/>
	<path class="st12" d="M997.5,198l-2.5-2.5c-0.5-0.5-0.5-1.4,0-2l2.5-2.5c0.5-0.5,1.4-0.5,2,0l2.5,2.5c0.5,0.5,0.5,1.4,0,2l-2.5,2.5
		C998.9,198.6,998.1,198.6,997.5,198z"/>
	<path class="st12" d="M997.5,220.4l-2.5-2.5c-0.5-0.5-0.5-1.4,0-2l2.5-2.5c0.5-0.5,1.4-0.5,2,0l2.5,2.5c0.5,0.5,0.5,1.4,0,2
		l-2.5,2.5C998.9,221,998.1,221,997.5,220.4z"/>
	<path class="st12" d="M997.5,238.2l-2.5-2.5c-0.5-0.5-0.5-1.4,0-2l2.5-2.5c0.5-0.5,1.4-0.5,2,0l2.5,2.5c0.5,0.5,0.5,1.4,0,2
		l-2.5,2.5C998.9,238.8,998.1,238.8,997.5,238.2z"/>
	<path class="st13" d="M984,329.2l-2.5-2.5c-0.5-0.5-0.5-1.4,0-2l2.5-2.5c0.5-0.5,1.4-0.5,2,0l2.5,2.5c0.5,0.5,0.5,1.4,0,2l-2.5,2.5
		C985.4,329.7,984.5,329.7,984,329.2z"/>
	<path class="st13" d="M951.3,341.2l-2.5-2.5c-0.5-0.5-0.5-1.4,0-2l2.5-2.5c0.5-0.5,1.4-0.5,2,0l2.5,2.5c0.5,0.5,0.5,1.4,0,2
		l-2.5,2.5C952.8,341.7,951.9,341.7,951.3,341.2z"/>
	<path class="st13" d="M775.5,361.6l-2.5-2.5c-0.5-0.5-0.5-1.4,0-2l2.5-2.5c0.5-0.5,1.4-0.5,2,0l2.5,2.5c0.5,0.5,0.5,1.4,0,2
		l-2.5,2.5C776.9,362.2,776.1,362.2,775.5,361.6z"/>
	<path class="st13" d="M775.5,394.9l-2.5-2.5c-0.5-0.5-0.5-1.4,0-2l2.5-2.5c0.5-0.5,1.4-0.5,2,0l2.5,2.5c0.5,0.5,0.5,1.4,0,2
		l-2.5,2.5C776.9,395.4,776.1,395.4,775.5,394.9z"/>
	<path class="st13" d="M634.5,386.2l-2.5-2.5c-0.5-0.5-0.5-1.4,0-2l2.5-2.5c0.5-0.5,1.4-0.5,2,0l2.5,2.5c0.5,0.5,0.5,1.4,0,2
		l-2.5,2.5C635.9,386.7,635.1,386.7,634.5,386.2z"/>
	<path class="st13" d="M649.1,423.7l-2.5-2.5c-0.5-0.5-0.5-1.4,0-2l2.5-2.5c0.5-0.5,1.4-0.5,2,0l2.5,2.5c0.5,0.5,0.5,1.4,0,2
		l-2.5,2.5C650.5,424.3,649.7,424.3,649.1,423.7z"/>
	<path class="st13" d="M684,440.3l-2.5-2.5c-0.5-0.5-0.5-1.4,0-2l2.5-2.5c0.5-0.5,1.4-0.5,2,0l2.5,2.5c0.5,0.5,0.5,1.4,0,2l-2.5,2.5
		C685.4,440.8,684.5,440.8,684,440.3z"/>
	<path class="st13" d="M561.7,410.2l-2.5-2.5c-0.5-0.5-0.5-1.4,0-2l2.5-2.5c0.5-0.5,1.4-0.5,2,0l2.5,2.5c0.5,0.5,0.5,1.4,0,2
		l-2.5,2.5C563.1,410.7,562.2,410.7,561.7,410.2z"/>
	<path class="st13" d="M540.3,441.2l-2.5-2.5c-0.5-0.5-0.5-1.4,0-2l2.5-2.5c0.5-0.5,1.4-0.5,2,0l2.5,2.5c0.5,0.5,0.5,1.4,0,2
		l-2.5,2.5C541.8,441.7,540.9,441.7,540.3,441.2z"/>
	<path class="st13" d="M539.2,498.7l-2.5-2.5c-0.5-0.5-0.5-1.4,0-2l2.5-2.5c0.5-0.5,1.4-0.5,2,0l2.5,2.5c0.5,0.5,0.5,1.4,0,2
		l-2.5,2.5C540.7,499.3,539.8,499.3,539.2,498.7z"/>
	<path class="st13" d="M634.5,369.4l-2.5-2.5c-0.5-0.5-0.5-1.4,0-2l2.5-2.5c0.5-0.5,1.4-0.5,2,0l2.5,2.5c0.5,0.5,0.5,1.4,0,2
		l-2.5,2.5C635.9,370,635.1,370,634.5,369.4z"/>
	<path class="st13" d="M634.5,354l-2.5-2.5c-0.5-0.5-0.5-1.4,0-2l2.5-2.5c0.5-0.5,1.4-0.5,2,0l2.5,2.5c0.5,0.5,0.5,1.4,0,2l-2.5,2.5
		C635.9,354.6,635.1,354.6,634.5,354z"/>
	<path class="st13" d="M634.5,297.7l-2.5-2.5c-0.5-0.5-0.5-1.4,0-2l2.5-2.5c0.5-0.5,1.4-0.5,2,0l2.5,2.5c0.5,0.5,0.5,1.4,0,2
		l-2.5,2.5C635.9,298.2,635.1,298.2,634.5,297.7z"/>
	<path class="st13" d="M634.5,239.8l-2.5-2.5c-0.5-0.5-0.5-1.4,0-2l2.5-2.5c0.5-0.5,1.4-0.5,2,0l2.5,2.5c0.5,0.5,0.5,1.4,0,2
		l-2.5,2.5C635.9,240.4,635.1,240.4,634.5,239.8z"/>
	<path class="st13" d="M634.5,207.8l-2.5-2.5c-0.5-0.5-0.5-1.4,0-2l2.5-2.5c0.5-0.5,1.4-0.5,2,0l2.5,2.5c0.5,0.5,0.5,1.4,0,2
		l-2.5,2.5C635.9,208.4,635.1,208.4,634.5,207.8z"/>
	<path class="st13" d="M775.5,343.3l-2.5-2.5c-0.5-0.5-0.5-1.4,0-2l2.5-2.5c0.5-0.5,1.4-0.5,2,0l2.5,2.5c0.5,0.5,0.5,1.4,0,2
		l-2.5,2.5C776.9,343.9,776.1,343.9,775.5,343.3z"/>
	<path class="st13" d="M775.5,306.1l-2.5-2.5c-0.5-0.5-0.5-1.4,0-2l2.5-2.5c0.5-0.5,1.4-0.5,2,0l2.5,2.5c0.5,0.5,0.5,1.4,0,2
		l-2.5,2.5C776.9,306.7,776.1,306.7,775.5,306.1z"/>
	<path class="st13" d="M775.5,271.3l-2.5-2.5c-0.5-0.5-0.5-1.4,0-2l2.5-2.5c0.5-0.5,1.4-0.5,2,0l2.5,2.5c0.5,0.5,0.5,1.4,0,2
		l-2.5,2.5C776.9,271.9,776.1,271.9,775.5,271.3z"/>
	<path class="st13" d="M775.5,232.7l-2.5-2.5c-0.5-0.5-0.5-1.4,0-2l2.5-2.5c0.5-0.5,1.4-0.5,2,0l2.5,2.5c0.5,0.5,0.5,1.4,0,2
		l-2.5,2.5C776.9,233.3,776.1,233.3,775.5,232.7z"/>
	<path class="st13" d="M775.5,193.8l-2.5-2.5c-0.5-0.5-0.5-1.4,0-2l2.5-2.5c0.5-0.5,1.4-0.5,2,0l2.5,2.5c0.5,0.5,0.5,1.4,0,2
		l-2.5,2.5C776.9,194.4,776.1,194.4,775.5,193.8z"/>
	<path class="st13" d="M775.5,153.7l-2.5-2.5c-0.5-0.5-0.5-1.4,0-2l2.5-2.5c0.5-0.5,1.4-0.5,2,0l2.5,2.5c0.5,0.5,0.5,1.4,0,2
		l-2.5,2.5C776.9,154.2,776.1,154.2,775.5,153.7z"/>
	<path class="st13" d="M1322.7,208l-2.5-2.5c-0.5-0.5-0.5-1.4,0-2l2.5-2.5c0.5-0.5,1.4-0.5,2,0l2.5,2.5c0.5,0.5,0.5,1.4,0,2
		l-2.5,2.5C1324.2,208.5,1323.3,208.5,1322.7,208z"/>
	<path class="st13" d="M1351.4,208l-2.5-2.5c-0.5-0.5-0.5-1.4,0-2l2.5-2.5c0.5-0.5,1.4-0.5,2,0l2.5,2.5c0.5,0.5,0.5,1.4,0,2
		l-2.5,2.5C1352.8,208.5,1352,208.5,1351.4,208z"/>
	<path class="st13" d="M1377.7,208l-2.5-2.5c-0.5-0.5-0.5-1.4,0-2l2.5-2.5c0.5-0.5,1.4-0.5,2,0l2.5,2.5c0.5,0.5,0.5,1.4,0,2
		l-2.5,2.5C1379.1,208.5,1378.2,208.5,1377.7,208z"/>
	<path class="st13" d="M1399.8,208l-2.5-2.5c-0.5-0.5-0.5-1.4,0-2l2.5-2.5c0.5-0.5,1.4-0.5,2,0l2.5,2.5c0.5,0.5,0.5,1.4,0,2
		l-2.5,2.5C1401.2,208.5,1400.3,208.5,1399.8,208z"/>
	<path class="st13" d="M1727,356l-2.5-2.5c-0.5-0.5-0.5-1.4,0-2l2.5-2.5c0.5-0.5,1.4-0.5,2,0l2.5,2.5c0.5,0.5,0.5,1.4,0,2l-2.5,2.5
		C1728.4,356.6,1727.6,356.6,1727,356z"/>
	<path class="st13" d="M1727,307.2l-2.5-2.5c-0.5-0.5-0.5-1.4,0-2l2.5-2.5c0.5-0.5,1.4-0.5,2,0l2.5,2.5c0.5,0.5,0.5,1.4,0,2
		l-2.5,2.5C1728.4,307.8,1727.6,307.8,1727,307.2z"/>
	<path class="st13" d="M1727,274.7l-2.5-2.5c-0.5-0.5-0.5-1.4,0-2l2.5-2.5c0.5-0.5,1.4-0.5,2,0l2.5,2.5c0.5,0.5,0.5,1.4,0,2
		l-2.5,2.5C1728.4,275.3,1727.6,275.3,1727,274.7z"/>
	<path class="st13" d="M1727,213.3l-2.5-2.5c-0.5-0.5-0.5-1.4,0-2l2.5-2.5c0.5-0.5,1.4-0.5,2,0l2.5,2.5c0.5,0.5,0.5,1.4,0,2
		l-2.5,2.5C1728.4,213.9,1727.6,213.9,1727,213.3z"/>
	<path class="st13" d="M1691.7,171.7l-2.5-2.5c-0.5-0.5-0.5-1.4,0-2l2.5-2.5c0.5-0.5,1.4-0.5,2,0l2.5,2.5c0.5,0.5,0.5,1.4,0,2
		l-2.5,2.5C1693.1,172.2,1692.2,172.2,1691.7,171.7z"/>
	<path class="st13" d="M1664.5,556l-2.5-2.5c-0.5-0.5-0.5-1.4,0-2l2.5-2.5c0.5-0.5,1.4-0.5,2,0l2.5,2.5c0.5,0.5,0.5,1.4,0,2
		l-2.5,2.5C1665.9,556.5,1665.1,556.5,1664.5,556z"/>
</g>
<g id="Слой_5">
	<text transform="matrix(1 0 0 1 207.2271 909.9999)"><tspan x="0" y="0" class="st14 st15 st16">Вишенське</tspan><tspan x="0" y="9" class="st14 st15 st16">Озеро</tspan></text>
	<text transform="matrix(0.5254 -0.8509 0.8509 0.5254 890.0516 663.1445)" class="st14 st15 st16">річка Південний Буг</text>
	<text transform="matrix(0 -1 1 0 168.5298 763.6459)" class="st17 st18">9 мікрорайон</text>
	<text transform="matrix(0 -1 1 0 227.5298 768.7975)" class="st17 st18">ТЦ «Вишенька»</text>
	<text transform="matrix(0 -1 1 0 267.2798 737.8265)"><tspan x="0" y="0" class="st17 st18">Воїнів</tspan><tspan x="-43.1" y="6" class="st17 st18">Інтернаціоналістів</tspan></text>
	<text transform="matrix(0 -1 1 0 331.0298 775.2179)" class="st17 st18">Проспект Юності</text>
	<text transform="matrix(0 -1 1 0 331.0298 935.0394)" class="st17 st18">Дендорологіний парк</text>
	<text transform="matrix(0 -1 1 0 272.5298 931.2955)" class="st17 st18">Юності 2-й провулок</text>
	<text transform="matrix(0 -1 1 0 356.3631 934.4864)" class="st17 st18">Пирогова</text>
	<text transform="matrix(1 0 0 1 280.2554 984.0077)" class="st17 st18">Комарова</text>
	<text transform="matrix(1 0 0 1 356.3628 879.6251)" class="st19 st20 st21">Парк Дружби народів</text>
	<text transform="matrix(1 0 0 1 628.979 878.875)"><tspan x="0" y="0" class="st19 st20 st21">Парк ім. Лікаря</tspan><tspan x="0" y="6" class="st19 st20 st21">О. І. Ющенка</tspan></text>
	<text transform="matrix(1 0 0 1 360.7305 475.9686)" class="st19 st20 st21">Лісопарк</text>
	<text transform="matrix(0 -1 1 0 351.3631 846.1531)" class="st17 st18">Школа №10</text>
	<text transform="matrix(0 -1 1 0 373.0298 846.1531)"><tspan x="0" y="0" class="st17 st18">Парк</tspan><tspan x="0" y="6" class="st17 st18">Дружби Народів</tspan></text>
	<text transform="matrix(0 -1 1 0 347.0298 802.5813)" class="st22 st15 st16">Просп. Юності</text>
	<text transform="matrix(1 0 0 1 346.189 866.0463)" class="st22 st15 st16">вул. Стахурського</text>
	<text transform="matrix(1 0 0 1 369.1191 953.713)" class="st22 st15 st16">вул. Пирогова</text>
	<text transform="matrix(0 -1 1 0 331.0298 681.248)" class="st22 st15 st16">Просп. Юності</text>
	<text transform="matrix(0 -1 1 0 451.6206 681.311)" class="st22 st15 st16">вул. 600-річчя</text>
	<text transform="matrix(0 -1 1 0 463.0298 804.3177)" class="st22 st15 st16">вул. 600 річчя</text>
	<text transform="matrix(1 0 0 1 348.0166 695.9539)" class="st22 st15 st16">вул. Келецька</text>
	<text transform="matrix(1 0 0 1 470.8369 695.9539)" class="st22 st15 st16">вул. Келецька</text>
	<text transform="matrix(1 0 0 1 359.792 624.5891)" class="st22 st15 st16">вул. Порика</text>
	<text transform="matrix(1 0 0 1 541.6606 530.2558)" class="st22 st15 st16">Хмельницьке шосе</text>
	<text transform="matrix(1 0 0 1 778.4292 554.8127)" class="st22 st15 st16">вул. Собона</text>
	<text transform="matrix(0.5451 -0.8384 0.8384 0.5451 670.0195 634.3181)" class="st22 st15 st16">вул. Пирогова</text>
	<text transform="matrix(0.5354 -0.8446 0.8446 0.5354 650.1023 847.6133)" class="st22 st15 st16">вул. Зодчих</text>
	<text transform="matrix(0.5354 -0.8446 0.8446 0.5354 518.3225 826.3926)" class="st22 st15 st16">вул. Пирогова</text>
	<text transform="matrix(1 0 0 1 555.9063 925.5893)" class="st22 st15 st16">Сабарівське шосе</text>
	<text transform="matrix(1 0 0 1 990.6191 791.0418)" class="st22 st15 st16">вул. Московська</text>
	<text transform="matrix(0 -1 1 0 858.0002 989.7145)" class="st22 st15 st16">вул. Маяковського</text>
	<text transform="matrix(0 -1 1 0 1134.3989 773.4157)" class="st22 st15 st16">вул. Данила Нечая</text>
	<text transform="matrix(0.5268 -0.85 0.85 0.5268 818.9503 698.4714)" class="st22 st15 st16">вул. Свердлова</text>
	<text transform="matrix(0 -1 1 0 984.99 418.8778)" class="st22 st15 st16">вул. Київська</text>
	<text transform="matrix(0.9452 -0.3265 0.3265 0.9452 832.2607 368.396)" class="st22 st15 st16">вул. Чорновола</text>
	<text transform="matrix(0 -1 1 0 621.823 303.7331)" class="st22 st15 st16">вул. Салтикова-Щедріна</text>
	<text transform="matrix(0 -1 1 0 763.3718 280.7331)" class="st22 st15 st16">вул. Івана Богуна</text>
	<text transform="matrix(1 0 0 1 1058.5952 337.7068)" class="st22 st15 st16">вул. Фрунзе</text>
	<text transform="matrix(1 0 0 1 1183.8765 109.8077)" class="st22 st15 st16">вул. Тарногродського</text>
	<text transform="matrix(1 0 0 1 1210.9985 337.7068)" class="st22 st15 st16">вул. Фрунзе</text>
	<text transform="matrix(0 -1 1 0 1165.4926 476.9595)" class="st22 st15 st16">вул. 50-річчя Перемоги</text>
	<text transform="matrix(0 -1 1 0 1290.4886 252.9116)" class="st22 st15 st16">вул. Кірова</text>
	<text transform="matrix(0 -1 1 0 1273.8219 766.4426)" class="st22 st15 st16">вул. Привокзальна</text>
	<text transform="matrix(0 -1 1 0 1528.0719 706.6696)" class="st22 st15 st16">вул. Іванова</text>
	<text transform="matrix(0 -1 1 0 1676.7385 706.6696)" class="st22 st15 st16">вул.Чехова</text>
	<text transform="matrix(1 0 0 1 1366.3599 599.7921)" class="st22 st15 st16">вул. Лебединського</text>
	<text transform="matrix(0 -1 1 0 1479.5587 541.9751)" class="st22 st15 st16">вул. Карла Маркса</text>
	<text transform="matrix(1 0 0 1 1551.2959 520.1058)" class="st22 st15 st16">пров. Карла Маркса</text>
	<text transform="matrix(0 -1 1 0 1653.4058 492.4092)" class="st22 st15 st16">вул. Чехова</text>
	<text transform="matrix(0 -1 1 0 1705.4355 328.4092)" class="st22 st15 st16">вул. Ватутіна</text>
	<text transform="matrix(0.9375 -0.348 0.348 0.9375 1568.5439 418.8062)" class="st22 st15 st16">вул. Ватутіна</text>
	<text transform="matrix(1 0 0 1 1562.1377 599.7921)" class="st22 st15 st16">Немирівське шосе</text>
	<text transform="matrix(0 -1 1 0 1273.8219 845.9609)" class="st22 st15 st16">вул.Бучми</text>
	<text transform="matrix(0.9471 -0.321 0.321 0.9471 1484.5671 916.6174)" class="st22 st15 st16">вул. Блюхера</text>
	<text transform="matrix(1 0 0 1 1165.522 554.813)" class="st22 st15 st16">просп. Коцюбинського</text>
	<text transform="matrix(1 0 0 1 1196.9268 599.7921)" class="st22 st15 st16">вул. Островського</text>
	<text transform="matrix(0.9453 -0.3263 0.3263 0.9453 953.3301 676.0253)" class="st22 st15 st16">вул. Гліба Успенського</text>
	<text transform="matrix(0 -1 1 0 379.7798 759.1866)" class="st17 st18">Космонавтів</text>
	<text transform="matrix(0 -1 1 0 449.5298 749.3864)" class="st17 st18">600-річчя</text>
	<text transform="matrix(0 -1 1 0 447.5298 848.2365)" class="st17 st18">ДПІ</text>
	<text transform="matrix(0 -1 1 0 511.7798 934.4865)"><tspan x="0" y="0" class="st17 st18">Очисні</tspan><tspan x="0" y="6" class="st17 st18">споруди</tspan></text>
	<text transform="matrix(0 -1 1 0 490.5298 848.2365)" class="st17 st18">Лізи Чайкіної</text>
	<text transform="matrix(0 -1 1 0 568.3228 1014.7499)" class="st17 st18">Автогосподарство</text>
	<text transform="matrix(0 -1 1 0 595.3228 981.3903)" class="st17 st18">Вишнева</text>
	<text transform="matrix(0 -1 1 0 619.3228 1007.5178)" class="st17 st18">Черняховського</text>
	<text transform="matrix(0 -1 1 0 855.5 884.1609)" class="st17 st18">Ушакова</text>
	<text transform="matrix(1 0 0 1 808.4136 802.0417)" class="st17 st18">Площа 8 Березня</text>
	<text transform="matrix(0 -1 1 0 490.5298 764.0341)" class="st17 st18">Лялі Ратушної</text>
	<text transform="matrix(0 -1 1 0 533.0298 750.954)" class="st17 st18">Шевченка</text>
	<text transform="matrix(1 0 0 1 280.0933 730.7919)" class="st17 st18">Келецька</text>
	<text transform="matrix(1 0 0 1 328.7798 530.4586)" class="st17 st18">Юності просп.</text>
	<text transform="matrix(1 0 0 1 328.7798 599.7919)" class="st17 st18">Порика</text>
	<text transform="matrix(1 0 0 1 116.5684 567.2919)" class="st17 st18">Квятека</text>
	<text transform="matrix(1 0 0 1 74.6025 611.547)" class="st17 st18">Стельмаха</text>
	<text transform="matrix(1 0 0 1 55.2065 656.547)"><tspan x="0" y="0" class="st17 st18">100-річчя</tspan><tspan x="-10.1" y="6" class="st17 st18">Вінницького</tspan><tspan x="3.1" y="12" class="st17 st18">трамваю</tspan></text>
	<text transform="matrix(0 -1 1 0 375.9222 608.5718)"><tspan x="0" y="0" class="st17 st18">Космонавтів</tspan><tspan x="0" y="6" class="st17 st18">просп.</tspan></text>
	<text transform="matrix(1 0 0 1 446.5298 574.7336)" class="st17 st18">Пожежна Частина</text>
	<text transform="matrix(1 0 0 1 561.042 680.4836)"><tspan x="0" y="0" class="st17 st18">Медичний</tspan><tspan x="-4.7" y="6" class="st17 st18">університет</tspan></text>
	<text transform="matrix(1 0 0 1 596.3394 626.4839)"><tspan x="0" y="0" class="st23 st17 st21">Лікарня</tspan><tspan x="-12.7" y="6" class="st23 st17 st21">ім. Пирогова</tspan></text>
	<text transform="matrix(1 0 0 1 839.624 559.1059)"><tspan x="0" y="0" class="st23 st20 st21">Вінницька</tspan><tspan x="-4.2" y="6" class="st23 st20 st21">міська рада</tspan></text>
	<text transform="matrix(1 0 0 1 905.314 559.9999)"><tspan x="0" y="0" class="st24 st20 st21">Свято-</tspan><tspan x="-13.6" y="6" class="st24 st20 st21">Преображенський</tspan><tspan x="-17.3" y="12" class="st24 st20 st21">кафедральний собор</tspan></text>
	<text transform="matrix(1 0 0 1 827.625 464.8369)"><tspan x="0" y="0" class="st24 st20 st21">Водонапірна</tspan><tspan x="10.1" y="6" class="st24 st20 st21">вежа</tspan></text>
	<text transform="matrix(1 0 0 1 974.5889 567.2919)"><tspan x="0" y="0" class="st24 st20 st21">Свтло=</tspan><tspan x="-1.9" y="6" class="st24 st20 st21">музичний</tspan><tspan x="-0.4" y="12" class="st24 st20 st21">фонтан</tspan></text>
	<text transform="matrix(1 0 0 1 822.9268 747.6254)"><tspan x="0" y="0" class="st24 st20 st21">Дерев’яний храм</tspan><tspan x="-3.6" y="6" class="st24 st20 st21">Святого Миколая</tspan></text>
	<text transform="matrix(1 0 0 1 315.8574 967.0002)"><tspan x="0" y="0" class="st24 st20 st21">Національний</tspan><tspan x="1.4" y="6" class="st24 st20 st21">музей-садиба</tspan><tspan x="1" y="12" class="st24 st20 st21">М. І. Пирогова</tspan></text>
	<text transform="matrix(1 0 0 1 261.2915 1020.7504)"><tspan x="0" y="0" class="st24 st20 st21">Склеп-могила</tspan><tspan x="0.4" y="6" class="st24 st20 st21">М. І. Пирогова</tspan></text>
	<text transform="matrix(1 0 0 1 446.5298 606.067)" class="st17 st18">М.Т.Е.</text>
	<text transform="matrix(0 -1 1 0 282.1722 608.5718)" class="st17 st18">Завод «Маяк»</text>
	<text transform="matrix(0 -1 1 0 221.9222 608.5718)" class="st17 st18">Квятека</text>
	<text transform="matrix(0 -1 1 0 280.2556 497.2385)"><tspan x="0" y="0" class="st17 st18">Воїнів</tspan><tspan x="0" y="6" class="st17 st18">Інтернаціоналістів</tspan></text>
	<text transform="matrix(0 -1 1 0 465.0056 510.0667)" class="st17 st18">Максимовича</text>
	<text transform="matrix(0 -1 1 0 504.2556 510.0667)" class="st17 st18">Олександра Музики</text>
	<text transform="matrix(0 -1 1 0 529.2556 510.0667)" class="st17 st18">Палац Школярів</text>
	<text transform="matrix(0 -1 1 0 597.7098 510.271)" class="st17 st18">40-річчя Перемоги</text>
	<text transform="matrix(1 0 0 1 565.7817 411.7891)" class="st17 st18">Арабея</text>
	<text transform="matrix(1 0 0 1 546.0317 440.7891)"><tspan x="0" y="0" class="st17 st18">Училище</tspan><tspan x="0" y="6" class="st17 st18">цивільної</tspan><tspan x="0" y="12" class="st17 st18">оборони</tspan></text>
	<text transform="matrix(1 0 0 1 546.0317 497.5391)" class="st17 st18">Кладовище</text>
	<text transform="matrix(1 0 0 1 630.479 434.7891)" class="st17 st18">Лесі Українки</text>
	<text transform="matrix(1 0 0 1 658.146 421.9039)" class="st17 st18">Михайловського</text>
	<text transform="matrix(1 0 0 1 643.646 401.0628)" class="st17 st18">Салтикова-Щедріна</text>
	<text transform="matrix(1 0 0 1 643.646 384.8961)" class="st17 st18">Каховського</text>
	<text transform="matrix(1 0 0 1 643.646 368.3961)" class="st17 st18">Ціолковського</text>
	<text transform="matrix(1 0 0 1 643.646 353.3961)" class="st17 st18">Лазо</text>
	<text transform="matrix(1 0 0 1 717.9316 391.3961)"><tspan x="0" y="0" class="st17 st18">Площа Героїв</tspan><tspan x="16.4" y="6" class="st17 st18">Майдану</tspan></text>
	<text transform="matrix(1 0 0 1 643.646 296.5628)" class="st17 st18">Садиба Грохольських</text>
	<text transform="matrix(1 0 0 1 643.646 238.2294)" class="st17 st18">Автополігон</text>
	<text transform="matrix(1 0 0 1 643.646 207.2294)" class="st17 st18">Міське ДАІ (на вимогу)</text>
	<text transform="matrix(1 0 0 1 787.646 153.2294)" class="st17 st18">Кладовище</text>
	<text transform="matrix(1 0 0 1 787.646 192.8264)" class="st17 st18">Дніпровська</text>
	<text transform="matrix(1 0 0 1 787.646 230.8264)" class="st17 st18">Бєлінського</text>
	<text transform="matrix(1 0 0 1 787.646 269.8264)" class="st17 st18">Руданського</text>
	<text transform="matrix(1 0 0 1 787.646 304.8264)" class="st17 st18">Герцена</text>
	<text transform="matrix(1 0 0 1 787.646 342.5764)" class="st17 st18">Пестеля</text>
	<text transform="matrix(1 0 0 1 787.646 361.0764)" class="st17 st18">Богуна</text>
	<text transform="matrix(1 0 0 1 644.979 470.7891)" class="st17 st18">Пугачова</text>
	<text transform="matrix(0 -1 1 0 692.0449 499.1592)"><tspan x="0" y="0" class="st17 st18">Площа</tspan><tspan x="0" y="6" class="st17 st18">Гагаріна</tspan></text>
	<text transform="matrix(0 -1 1 0 1082.5981 506.7686)" class="st17 st18">музей Коцюбинського</text>
	<text transform="matrix(1 0 0 1 1088.5532 470.7893)" class="st17 st18">Будинок побуту</text>
	<text transform="matrix(1 0 0 1 968.5156 473.7893)"><tspan x="0" y="0" class="st17 st18">Героїв</tspan><tspan x="-16.9" y="6" class="st17 st18">Чорнобиля</tspan></text>
	<text transform="matrix(1 0 0 1 1004.978 458.5393)"><tspan x="0" y="0" class="st25 st17 st18">Автовокзал</tspan><tspan x="0" y="6" class="st25 st17 st18">Центральний</tspan></text>
	<text transform="matrix(1 0 0 1 716.3716 453.9312)" class="st17 st18">Грушевського</text>
	<text transform="matrix(1 0 0 1 743.6919 479.1812)"><tspan x="0" y="0" class="st17 st18">Театр</tspan><tspan x="-35" y="6" class="st17 st18">ім. Садовського</tspan></text>
	<text transform="matrix(0 -1 1 0 619.5272 510.271)" class="st17 st18">Першотравнева</text>
	<text transform="matrix(0 -1 1 0 310.2556 497.2385)" class="st17 st18">Технічний університет</text>
	<text transform="matrix(0 -1 1 0 404.9222 510.0669)" class="st17 st18">Лісопарк</text>
	<text transform="matrix(1 0 0 1 580.0728 764.0419)"><tspan x="0" y="0" class="st17 st18">Академіка</tspan><tspan x="0" y="9" class="st17 st18">Заболотного</tspan></text>
	<text transform="matrix(1 0 0 1 681.0728 895.7086)"><tspan x="0" y="0" class="st26 st17 st27">Лікарня</tspan><tspan x="0" y="12" class="st26 st17 st27">ім. Ющенко</tspan></text>
	<text transform="matrix(1 0 0 1 391.0728 895.7087)" class="st26 st17 st27">Електромережа</text>
	<text transform="matrix(1 0 0 1 250.8638 684.9998)" class="st26 st17 st27">Вишенька</text>
	<text transform="matrix(1 0 0 1 621.8228 541.3124)" class="st26 st17 st27">Площа Гагаріна</text>
	<text transform="matrix(1 0 0 1 636.8228 714.0861)" class="st26 st17 st27">ринок «Урожай»</text>
	<text transform="matrix(1 0 0 1 800.3228 484.8124)" class="st26 st17 st27">Театральна</text>
	<text transform="matrix(1 0 0 1 595.3228 151.1458)" class="st26 st17 st27">вул. Ботанічна</text>
	<text transform="matrix(1 0 0 1 748.9897 91.0271)" class="st26 st17 st27">П’ятничани</text>
	<text transform="matrix(1 0 0 1 943.1055 116.6938)"><tspan x="0" y="0" class="st26 st17 st27">Меморіал</tspan><tspan x="-9.8" y="12" class="st26 st17 st27">Визволення</tspan></text>
	<text transform="matrix(1 0 0 1 938.9146 16.6938)" class="st26 st17 st27">Водоканал</text>
	<text transform="matrix(1 0 0 1 158.8638 635.563)" class="st26 st17 st27">Стельмаха</text>
	<text transform="matrix(1 0 0 1 15.3638 532.0627)" class="st26 st17 st27">ТЦ «МЕТРО»</text>
	<text transform="matrix(1 0 0 1 193.6138 541.3127)" class="st26 st17 st27">Барське шосе</text>
	<text transform="matrix(1 0 0 1 90.1138 529.3127)"><tspan x="0" y="0" class="st25 st17 st27">Автовокзал</tspan><tspan x="0" y="12" class="st25 st17 st27">Західний</tspan></text>
	<g>
		<text transform="matrix(1 0 0 1 810.7397 708.7086)" class="st26 st17 st27">Свердлова</text>
	</g>
	<g>
		<text transform="matrix(1 0 0 1 888.7397 755.9586)" class="st26 st17 st27">Наливайка Площа</text>
	</g>
	<g>
		<text transform="matrix(1 0 0 1 1172.4175 472.039)"><tspan x="0" y="0" class="st26 st17 st27">площа</tspan><tspan x="0" y="12" class="st26 st17 st27">Перемоги</tspan></text>
	</g>
	<g>
		<text transform="matrix(1 0 0 1 1402.9253 502.5831)"><tspan x="0" y="0" class="st26 st17 st27">Залізничний</tspan><tspan x="0" y="12" class="st26 st17 st27">вокзал</tspan></text>
	</g>
	<g>
		<text transform="matrix(1 0 0 1 1312.314 310.9999)" class="st26 st17 st27">Муніципальний ринок</text>
	</g>
	<g>
		<text transform="matrix(1 0 0 1 1444.98 47.6666)" class="st26 st17 st27">ВПЗ</text>
	</g>
	<g>
		<text transform="matrix(1 0 0 1 1098.314 225.3333)" class="st26 st17 st27">1-й пров. Київський</text>
	</g>
	<g>
		<text transform="matrix(1 0 0 1 1340.1479 219.2499)" class="st26 st17 st27">Хутір Шевченка</text>
	</g>
	<g>
		<text transform="matrix(1 0 0 1 1639.4468 181.5832)" class="st26 st17 st27">Гонти</text>
	</g>
	<g>
		<text transform="matrix(1 0 0 1 1688.7808 254.2499)" class="st26 st17 st27">Лугова</text>
	</g>
	<g>
		<text transform="matrix(1 0 0 1 1756.9707 502.5832)"><tspan x="0" y="0" class="st26 st17 st27">Аеропорт</tspan><tspan x="-0.1" y="12" class="st26 st17 st27">«Вінниця»</tspan></text>
	</g>
	<g>
		<text transform="matrix(1 0 0 1 1698.1147 646.8453)" class="st26 st17 st27">Чехова</text>
	</g>
	<g>
		<text transform="matrix(1 0 0 1 1804.2808 674.0953)" class="st26 st17 st27">Вінницькі Хутори</text>
	</g>
	<g>
		<text transform="matrix(1 0 0 1 1744.1147 158.8292)" class="st26 st17 st27">Тяжилів (СТО)</text>
	</g>
	<text transform="matrix(1 0 0 1 513.4067 1045.042)" class="st17 st27">с. Шкуринці</text>
	<text transform="matrix(1 0 0 1 423.4067 1038.7086)"><tspan x="0" y="0" class="st17 st27">Аграрний</tspan><tspan x="0" y="12" class="st17 st27">Університет</tspan></text>
	<text transform="matrix(1 0 0 1 323.7397 1045.0415)" class="st17 st27">с. Агрошномічне</text>
	<text transform="matrix(1 0 0 1 194.0938 1017.0416)" class="st17 st27">с. Пирогово</text>
	<text transform="matrix(1 0 0 1 186.1406 872.0415)" class="st17 st27">Стахурського</text>
	<text transform="matrix(1 0 0 1 781.7397 927.3753)" class="st17 st27">Педучилище</text>
	<text transform="matrix(1 0 0 1 657.0728 969.4998)" class="st26 st17 st27">Сабарів</text>
	<text transform="matrix(1 0 0 1 936.5728 997.4998)"><tspan x="0" y="0" class="st26 st17 st27">Будинок</tspan><tspan x="0" y="12" class="st26 st17 st27">відпочинку</tspan></text>
	<text transform="matrix(1 0 0 1 1013.5728 980.4998)" class="st26 st17 st27">Примакова</text>
	<text transform="matrix(1 0 0 1 1186.0005 980.4996)" class="st26 st17 st27">Площа шкільна</text>
	<text transform="matrix(1 0 0 1 1348.5015 1034.7917)" class="st26 st17 st27">Бучми (ліс)</text>
	<text transform="matrix(1 0 0 1 1460.7559 757.2917)"><tspan x="0" y="0" class="st26 st17 st27">Олієжиркомбінат</tspan><tspan x="11.6" y="12" class="st26 st17 st27">(Молокозавод)</tspan></text>
	<text transform="matrix(1 0 0 1 1468.9409 991.2917)" class="st26 st17 st27">Бучми </text>
	<text transform="matrix(1 0 0 1 551.3228 808.5419)" class="st17 st18">Дачна</text>
	<text transform="matrix(1 0 0 1 588.3228 820.2919)" class="st17 st18">Бульвар Свободи</text>
	<text transform="matrix(1 0 0 1 607.8228 839.2919)" class="st17 st18">Зодчих</text>
	<text transform="matrix(1 0 0 1 521.3228 854.7919)" class="st17 st18">30-річчя Перемоги</text>
	<text transform="matrix(1 0 0 1 582.0728 881.7919)" class="st17 st18">ТК «Вінниця»</text>
	<text transform="matrix(1 0 0 1 518.3228 898.1459)" class="st17 st18">Храм Стрітення Господнього</text>
	<text transform="matrix(1 0 0 1 477.8228 951.8959)" class="st17 st18">Вінницькі МЕМ</text>
	<text transform="matrix(1 0 0 1 449.1558 976.5626)" class="st17 st18">Ботанічний сад</text>
	<text transform="matrix(1 0 0 1 441.6206 990.3215)" class="st17 st18">Гніванське шосе</text>
	<text transform="matrix(1 0 0 1 621.8228 791.0419)" class="st17 st18">ТЦ «Поділля»</text>
	<text transform="matrix(1 0 0 1 780.3228 743.1461)" class="st17 st18">Санаторна</text>
	<text transform="matrix(1 0 0 1 887.5728 721.6137)" class="st17 st18">Міст</text>
	<text transform="matrix(1 0 0 1 887.5728 775.3637)" class="st17 st18">Школа №19</text>
	<text transform="matrix(1 0 0 1 936.5728 706.6695)" class="st17 st18">Дмитрова</text>
	<text transform="matrix(1 0 0 1 998.5884 686.9195)" class="st17 st18">Судмедекспертиза</text>
	<text transform="matrix(1 0 0 1 1071.8384 661.4195)" class="st17 st18">Енгельса</text>
	<text transform="matrix(1 0 0 1 783.1636 657.6461)" class="st17 st18">Міліційна</text>
	<text transform="matrix(1 0 0 1 657.3228 645.0951)"><tspan x="0" y="0" class="st17 st18">Лікарня</tspan><tspan x="0" y="9" class="st17 st18">ім. Пирогова</tspan></text>
	<text transform="matrix(1 0 0 1 703.3228 573.5951)" class="st17 st18">Зої Космодем’янської</text>
	<text transform="matrix(1 0 0 1 818.2783 612.6461)" class="st17 st18">Пушкіна</text>
	<text transform="matrix(1 0 0 1 879.5645 589.1462)" class="st17 st18">Пристань</text>
	<text transform="matrix(0 -1 1 0 1165.4924 605.7031)"><tspan x="0" y="0" class="st17 st18">50-річчя</tspan><tspan x="0" y="9" class="st17 st18">Перемоги</tspan></text>
	<text transform="matrix(1 0 0 1 968.1807 535.38)"><tspan x="0" y="0" class="st17 st18">площа</tspan><tspan x="-11.7" y="9" class="st17 st18">Жовтнева</tspan></text>
	<text transform="matrix(0 -1 1 0 878.8395 506.7687)" class="st17 st18">Майдан Незалежності</text>
	<text transform="matrix(0 -1 1 0 894.9167 506.7687)" class="st17 st18">Інтернаціональна</text>
	<text transform="matrix(0 -1 1 0 909.4167 506.7687)" class="st17 st18">Соборна</text>
	<text transform="matrix(1 0 0 1 1036.6162 529.3125)"><tspan x="0" y="0" class="st17 st18">Лікеро-</tspan><tspan x="-13.3" y="9" class="st17 st18">горілчаний</tspan><tspan x="5.9" y="18" class="st17 st18">завод</tspan></text>
	<text transform="matrix(1 0 0 1 1007.728 401.0627)" class="st17 st18">Стеценка</text>
	<text transform="matrix(1 0 0 1 1007.728 363.3127)" class="st17 st18">Червоноармійська</text>
	<text transform="matrix(0 -1 1 0 1049.3687 343.7375)" class="st17 st18">Київська</text>
	<text transform="matrix(0 -1 1 0 1178.119 385.9314)" class="st17 st18">Фрунзе</text>
	<text transform="matrix(1 0 0 1 1172.4175 436.7889)"><tspan x="0" y="0" class="st17 st18">Центральний</tspan><tspan x="0" y="9" class="st17 st18">стадіон</tspan></text>
	<text transform="matrix(0 -1 1 0 1225.2499 397.283)" class="st17 st18">Некрасова</text>
	<text transform="matrix(0 -1 1 0 1236.2499 507.6185)" class="st17 st18">Ринок-Центральний</text>
	<text transform="matrix(0 -1 1 0 1268.9999 507.6185)" class="st17 st18">Папаніна</text>
	<text transform="matrix(0 -1 1 0 1265.4999 414.7146)"><tspan x="0" y="0" class="st17 st18">Муніципальний</tspan><tspan x="33.2" y="9" class="st17 st18">ринок</tspan></text>
	<text transform="matrix(1 0 0 1 1159.0327 316.5978)" class="st17 st18">МПМ «Зоря»</text>
	<text transform="matrix(1 0 0 1 1236.8667 306.5263)" class="st17 st18">Шк. -Коледж «30</text>
	<text transform="matrix(1 0 0 1 1312.314 273.7764)" class="st17 st18">Гаражі</text>
	<text transform="matrix(0 -1 1 0 1325.8101 192.8264)" class="st17 st18">Цимлянська</text>
	<text transform="matrix(0 -1 1 0 1359.5601 89.0764)" class="st17 st18">Завод управління</text>
	<text transform="matrix(0 -1 1 0 1305.1156 89.0764)" class="st17 st18">Кірова</text>
	<text transform="matrix(0 -1 1 0 1240.0322 89.0764)" class="st17 st18">Енергетична</text>
	<text transform="matrix(0 -1 1 0 1181.2822 89.0764)" class="st17 st18">Завод «Аграрна Фрут»</text>
	<text transform="matrix(0 -1 1 0 1121.7822 89.0764)" class="st17 st18">М33</text>
	<text transform="matrix(0 -1 1 0 1027.2822 89.0764)" class="st17 st18">Тарнагородського</text>
	<text transform="matrix(0 -1 1 0 1225.2494 278.3264)" class="st17 st18">Некрасова</text>
	<text transform="matrix(1 0 0 1 1224.5796 183.0504)" class="st17 st18">Фабрика «Рошн»</text>
	<text transform="matrix(1 0 0 1 1240.4673 132.0504)" class="st17 st18">Липовецька</text>
	<text transform="matrix(0 -1 1 0 1353.9995 192.8264)" class="st17 st18">Полубудкина</text>
	<text transform="matrix(0 -1 1 0 1379.9995 192.8264)" class="st17 st18">Лавринова</text>
	<text transform="matrix(0 -1 1 0 1402.926 192.8264)" class="st17 st18">М. Вовчко</text>
	<text transform="matrix(0 -1 1 0 987.3686 317.7375)" class="st17 st18">Чорновола</text>
	<text transform="matrix(0 -1 1 0 954.1186 329.7375)" class="st17 st18">Жуковського пров.</text>
	<text transform="matrix(1 0 0 1 1008.728 237.4792)" class="st17 st18">Лікарня 2-га міська</text>
	<text transform="matrix(1 0 0 1 1008.728 219.25)" class="st17 st18">Грибоєдова</text>
	<text transform="matrix(1 0 0 1 1008.728 196.9171)" class="st17 st18">Гонти</text>
	<text transform="matrix(1 0 0 1 1008.728 175.9171)" class="st17 st18">Станіславського</text>
	<text transform="matrix(1 0 0 1 1008.728 157.5837)" class="st17 st18">Школа-Коледж №29</text>
	<text transform="matrix(0 -1 1 0 1123.8687 343.7375)"><tspan x="0" y="0" class="st17 st18">Кооперативний</tspan><tspan x="0" y="9" class="st17 st18">інститут</tspan></text>
	<text transform="matrix(1 0 0 1 1084.0527 554.8129)" class="st17 st18">Ринок «Світанок»</text>
	<text transform="matrix(1 0 0 1 1160.0327 627.5629)"><tspan x="0" y="0" class="st17 st18">Кондитерська</tspan><tspan x="0" y="6" class="st17 st18">фабрика</tspan></text>
	<text transform="matrix(1 0 0 1 1306.7827 679.3129)" class="st17 st18">Школа №24</text>
	<text transform="matrix(1 0 0 1 1306.7827 745.8996)" class="st17 st18">Ясна</text>
	<text transform="matrix(1 0 0 1 1306.7827 818.3996)" class="st17 st18">пров. Привокзальний</text>
	<text transform="matrix(1 0 0 1 1160.0327 653.3129)" class="st17 st18">Енгельса</text>
	<text transform="matrix(1 0 0 1 1160.0327 667.5629)" class="st17 st18">Школа №22</text>
	<text transform="matrix(1 0 0 1 1160.0327 681.9224)" class="st17 st18">Цегельний завод</text>
	<text transform="matrix(1 0 0 1 1160.0327 697.9224)" class="st17 st18">пров. 2-й Д. Нечая</text>
	<text transform="matrix(1 0 0 1 1160.0327 764.0419)"><tspan x="0" y="0" class="st17 st18">Подільський</tspan><tspan x="0" y="6" class="st17 st18">проектний інститут</tspan></text>
	<text transform="matrix(1 0 0 1 1160.0327 784.5419)" class="st17 st18">Щорса</text>
	<text transform="matrix(1 0 0 1 1160.0327 798.2919)" class="st17 st18">Московська</text>
	<text transform="matrix(1 0 0 1 1160.0327 812.4999)" class="st17 st18">Д. Нечая</text>
	<text transform="matrix(1 0 0 1 1160.0327 877.4999)" class="st17 st18">Дундича</text>
	<text transform="matrix(1 0 0 1 1160.0327 899.4999)"><tspan x="0" y="0" class="st17 st18">Повстання Броненосця</tspan><tspan x="0" y="6" class="st17 st18">«Потьомкін»</tspan></text>
	<text transform="matrix(1 0 0 1 1160.0327 921.4999)" class="st17 st18">Молодогвардійська</text>
	<text transform="matrix(1 0 0 1 1346.7827 898.1458)" class="st17 st18">Затонського</text>
	<text transform="matrix(1 0 0 1 1371.5327 924.3958)" class="st17 st18">Трублаїні</text>
	<text transform="matrix(1 0 0 1 1392.2827 947.9998)" class="st17 st18">Топольського</text>
	<text transform="matrix(1 0 0 1 1411.0327 967.7498)" class="st17 st18">Блюхера</text>
	<text transform="matrix(1 0 0 1 1468.7827 947.9996)" class="st17 st18">1-й пров. Блюхера</text>
	<text transform="matrix(0 -1 1 0 1565.5323 1042.6768)" class="st17 st18">Вінницькі Хутори</text>
	<text transform="matrix(1 0 0 1 1547.0327 921.5001)" class="st17 st18">Церква</text>
	<text transform="matrix(1 0 0 1 1622.5327 895.7088)" class="st17 st18">Озеро</text>
	<text transform="matrix(1 0 0 1 1628.9995 824.4588)" class="st17 st18">Ю. Курія</text>
	<text transform="matrix(1 0 0 1 1610.3511 760.2088)" class="st17 st18">Молокозавод</text>
	<text transform="matrix(0 -1 1 0 1651.4503 649.549)" class="st17 st18">Чехова</text>
	<text transform="matrix(0 -1 1 0 1552.2003 651.197)" class="st17 st18">Іванова</text>
	<text transform="matrix(1 0 0 1 1501.4175 559.106)" class="st17 st18">Школа №13</text>
	<text transform="matrix(1 0 0 1 1501.4175 520.106)" class="st17 st18">Школа №12</text>
	<text transform="matrix(1 0 0 1 1501.4175 488.1059)" class="st17 st18">Фурманова</text>
	<text transform="matrix(1 0 0 1 1564.3921 436.789)" class="st17 st18">Ватутіна</text>
	<text transform="matrix(0 -1 1 0 1623.1437 499.1594)" class="st17 st18">пров. Карла Маркса</text>
	<text transform="matrix(1 0 0 1 1680.6851 419.5264)" class="st17 st18">Промислова</text>
	<text transform="matrix(1 0 0 1 1664.98 350.5264)"><tspan x="0" y="0" class="st17 st18">Вінницький</tspan><tspan x="-22.9" y="6" class="st17 st18">інструментальний</tspan><tspan x="20.5" y="12" class="st17 st18">завод</tspan></text>
	<text transform="matrix(1 0 0 1 1746.4351 273.7764)" class="st17 st18">Якіра</text>
	<text transform="matrix(1 0 0 1 1746.4351 213.0264)" class="st17 st18">Уборевича</text>
	<text transform="matrix(0 -1 1 0 1694.184 158.8293)" class="st17 st18">Промислова</text>
	<text transform="matrix(1 0 0 1 1746.4351 306.5264)" class="st17 st18">Ринок «Мрія»</text>
	<g>
		<text transform="matrix(1 0 0 1 1771.4351 346.9431)" class="st28 st17 st27">Автостанція «Східна»</text>
	</g>
	<text transform="matrix(1 0 0 1 1680.6851 469.0264)" class="st17 st18">Залізничний переїзд</text>
	<text transform="matrix(1 0 0 1 1680.6851 527.2559)" class="st17 st18">пров К. Маркса</text>
	<text transform="matrix(1 0 0 1 1680.6851 555.0059)"><tspan x="0" y="0" class="st17 st18">Вінницький</tspan><tspan x="0" y="6" class="st17 st18">авіаційний</tspan><tspan x="0" y="12" class="st17 st18">завод (ВАЗ)</tspan></text>
	<text transform="matrix(0 -1 1 0 1779.011 688)" class="st17 st18">Немирівське шосе</text>
	<text transform="matrix(0 -1 1 0 1504.2003 673.2766)" class="st17 st18">Карла Маркса</text>
	<text transform="matrix(0 -1 1 0 1351.2003 666.0925)" class="st17 st18">Зої Ткаченко</text>
	<text transform="matrix(0 -1 1 0 1282.4503 671.7004)" class="st17 st18">Привокзальна</text>
	<text transform="matrix(0 -1 1 0 1219.5328 672.1642)" class="st17 st18">Ленінградська</text>
	<text transform="matrix(1 0 0 1 1620.1831 686.9193)" class="st17 st18">ТЦ «ГРОШ»</text>
	<text transform="matrix(1 0 0 1 1549.5327 671.9193)"><tspan x="0" y="0" class="st17 st18">1-й роїзд</tspan><tspan x="0" y="6" class="st17 st18">Чехова</tspan></text>
	<text transform="matrix(0 -1 1 0 1116.1824 941.4539)" class="st17 st18">Тимощука</text>
	<text transform="matrix(0 -1 1 0 1136.6824 941.4539)" class="st17 st18">Завод «ЗБК»</text>
	<text transform="matrix(0 -1 1 0 1045.1824 864.2039)" class="st17 st18">Петровського</text>
	<text transform="matrix(1 0 0 1 887.5728 826.3926)" class="st17 st18">Маяковського</text>
	<text transform="matrix(1 0 0 1 887.5728 856.8926)" class="st17 st18">Лікарня №3</text>
	<text transform="matrix(1 0 0 1 887.5728 885.3926)" class="st17 st18">Рильского</text>
	<text transform="matrix(1 0 0 1 887.5728 914.3926)" class="st17 st18">Українська</text>
	<text transform="matrix(1 0 0 1 887.5728 944.1426)" class="st17 st18">Смірнова</text>
	<text transform="matrix(1 0 0 1 1095.3887 578.8129)" class="st17 st18">Островського</text>
	<text transform="matrix(1 0 0 1 1037.9746 624.5629)" class="st17 st18">Нансена</text>
	<text transform="matrix(1 0 0 1 827.7461 576.8961)" class="st17 st18">Свердлова</text>
	<text transform="matrix(0.5337 -0.8457 0.8457 0.5337 724.1652 780.099)" class="st17 st18">Скалецького</text>
	<g>
		<path id="SVGID_x5F_1_x5F_" class="st29" d="M530.7,444.3v-4.5c0-28.5,23.1-51.5,51.5-51.5h14"/>
		<text>		<textPath  xlink:href="#SVGID_x5F_1_x5F_" startOffset="35.7067%">
<tspan  class="st22 st15 st16">вул. Генерала Арабея</tspan>		</textPath>
</text>
	</g>
</g>
</svg>
